<svg width="32" height="32" viewBox="0 0 32 32" fill="none" xmlns="http://www.w3.org/2000/svg">
<circle cx="16" cy="16" r="16" fill="white"/>
<path fill-rule="evenodd" clip-rule="evenodd" d="M18.458 10.058C16.8295 10.3734 15.6408 11.9335 15.8169 13.5242L15.8603 13.9163L15.3815 13.8772C13.2156 13.7 10.8896 12.5702 9.42342 10.9832L9.0463 10.575L8.91312 10.8664C8.3247 12.1534 8.6494 13.645 9.7187 14.5671L10.0674 14.8678L9.8212 14.8348C9.60297 14.8056 8.88893 14.6144 8.67725 14.5284C8.56864 14.4843 8.57519 14.8735 8.69004 15.291C8.9724 16.3175 9.77527 17.1586 10.8241 17.5268L11.213 17.6633L10.8492 17.7075C10.649 17.7318 10.3187 17.74 10.1151 17.7258C9.75001 17.7002 9.74566 17.7019 9.80029 17.8409C10.2283 18.9301 11.2497 19.7005 12.5337 19.9027L12.7833 19.942L12.6282 20.0602C12.3791 20.2499 11.7108 20.6038 11.241 20.7948C10.523 21.0866 9.84628 21.2213 8.882 21.2641L8 21.3033L8.8505 21.712C10.1009 22.313 11.2012 22.5898 12.599 22.6552C14.6525 22.7511 16.5846 22.2444 18.2655 21.169C19.0526 20.6653 20.1336 19.6301 20.6712 18.865C21.7486 17.3314 22.3955 15.4231 22.3955 13.7782V13.1839L22.7644 12.8734C23.2292 12.4823 23.5929 12.1137 23.8566 11.7668C24.0218 11.5495 24.0378 11.5056 23.9377 11.5446C23.4063 11.7518 22.2824 12.0403 22.2246 11.9842C22.2147 11.9747 22.3359 11.8772 22.4938 11.7674C22.9254 11.4676 23.4112 10.8339 23.555 10.3833C23.5934 10.2633 23.5567 10.2716 23.1059 10.4862C22.8358 10.6146 22.3763 10.7864 22.0846 10.8678L21.5542 11.016L21.2031 10.7392C20.4312 10.1305 19.4022 9.87517 18.458 10.058Z" fill="#07061D"/>
</svg>
