<?xml version="1.0" standalone="no"?>
<!DOCTYPE svg PUBLIC "-//W3C//DTD SVG 20010904//EN"
 "http://www.w3.org/TR/2001/REC-SVG-20010904/DTD/svg10.dtd">
<svg version="1.0" xmlns="http://www.w3.org/2000/svg"
 width="700.000000pt" height="700.000000pt" viewBox="0 0 700.000000 700.000000"
 preserveAspectRatio="xMidYMid meet">
<metadata>
Created by potrace 1.14, written by Peter Selinger 2001-2017
</metadata>
<g transform="translate(0.000000,700.000000) scale(0.100000,-0.100000)"
fill="#000000" stroke="none">
<path d="M0 3500 l0 -3500 3500 0 3500 0 0 3500 0 3500 -3500 0 -3500 0 0
-3500z m3817 2799 c693 -76 1354 -424 1811 -954 371 -431 594 -932 669 -1504
22 -170 22 -512 0 -682 -137 -1043 -803 -1901 -1772 -2282 -334 -131 -642
-189 -1015 -190 -383 -1 -710 60 -1057 199 -874 348 -1525 1128 -1713 2048
-73 358 -73 775 0 1132 188 921 836 1697 1710 2047 290 116 525 169 900 201
71 6 360 -3 467 -15z"/>
<path d="M3442 4992 c-84 -214 -248 -539 -352 -695 -148 -223 -280 -341 -567
-504 -141 -80 -363 -185 -550 -259 -68 -27 -119 -51 -115 -55 4 -4 25 -12 47
-19 81 -26 394 -163 515 -227 343 -181 516 -327 679 -574 100 -150 256 -459
337 -666 32 -84 61 -153 64 -153 3 0 32 69 64 153 81 206 237 515 337 667 147
224 326 380 624 543 159 87 433 209 609 271 10 3 17 8 15 10 -2 2 -61 27 -131
54 -473 189 -820 397 -985 590 -144 169 -343 531 -468 849 -33 84 -62 153 -65
153 -3 0 -29 -62 -58 -138z"/>
</g>
</svg>
